<?xml version="1.0" standalone="no"?>
<!DOCTYPE svg PUBLIC "-//W3C//DTD SVG 20010904//EN"
 "http://www.w3.org/TR/2001/REC-SVG-20010904/DTD/svg10.dtd">
<svg version="1.0" xmlns="http://www.w3.org/2000/svg"
 width="287.000000pt" height="287.000000pt" viewBox="0 0 287.000000 287.000000"
 preserveAspectRatio="xMidYMid meet">
<metadata>
Created by potrace 1.14, written by Peter Selinger 2001-2017
</metadata>
<g transform="translate(0.000000,287.000000) scale(0.100000,-0.100000)"
fill="#000000" stroke="none">
<path d="M1670 2863 c-242 -37 -441 -134 -610 -297 -32 -31 -68 -70 -81 -87
-13 -17 -29 -36 -34 -42 -71 -83 -173 -318 -190 -437 -3 -25 -8 -52 -11 -61
-2 -8 -5 -56 -6 -105 -4 -253 67 -475 216 -673 l40 -53 -25 -22 c-21 -18 -37
-22 -87 -21 l-61 1 -410 -410 -411 -411 123 -123 122 -122 409 409 409 409 2
66 c1 54 5 71 23 88 19 20 23 20 39 6 56 -48 197 -131 288 -169 38 -15 150
-47 195 -54 25 -4 54 -9 65 -11 11 -3 70 -5 130 -5 61 0 119 2 130 5 11 2 40
7 65 11 74 12 200 55 280 95 255 129 455 362 540 630 73 232 64 493 -25 715
-58 144 -124 244 -235 356 -160 162 -348 261 -571 302 -70 13 -261 19 -319 10z
m292 -338 c343 -83 578 -375 578 -718 0 -63 -6 -110 -24 -202 -26 -128 -152
-309 -280 -399 -228 -163 -508 -185 -765 -60 -81 40 -109 60 -187 138 -78 78
-98 106 -137 186 -25 52 -53 127 -62 166 -91 407 158 800 565 889 79 17 241
17 312 0z"/>
<path d="M1635 2277 c-77 -26 -107 -106 -65 -175 27 -43 74 -63 123 -52 44 10
63 24 83 61 25 49 12 114 -30 148 -24 20 -78 29 -111 18z"/>
<path d="M1921 2276 c-134 -46 -90 -243 51 -230 58 6 108 65 102 122 -1 15 -2
32 -3 39 -1 10 -46 63 -54 63 -1 0 -16 4 -32 8 -19 6 -43 5 -64 -2z"/>
<path d="M1376 2056 c-20 -18 -37 -43 -37 -55 -1 -11 -2 -27 -3 -33 -4 -21 35
-85 58 -97 20 -10 62 -16 96 -12 21 2 63 41 76 71 22 51 -5 121 -57 147 -46
24 -94 16 -133 -21z"/>
<path d="M2113 2079 c-12 -6 -32 -31 -44 -54 -21 -39 -22 -47 -11 -83 31 -101
169 -118 218 -27 23 43 14 109 -19 143 -29 28 -107 40 -144 21z"/>
<path d="M1768 1920 c-41 -12 -59 -28 -138 -120 -40 -47 -88 -101 -107 -120
-50 -49 -82 -103 -89 -148 -8 -54 24 -115 74 -140 39 -20 45 -20 152 -7 98 12
207 12 312 0 52 -6 107 -8 123 -3 60 16 110 92 98 151 -9 49 -27 78 -90 149
-32 35 -89 99 -127 142 -37 42 -75 80 -85 85 -25 14 -93 19 -123 11z"/>
</g>
</svg>
